<svg version="1.1" id="Layer_1" xmlns="http://www.w3.org/2000/svg" xmlns:xlink="http://www.w3.org/1999/xlink" x="0px" y="0px"
	 width="100%" viewBox="0 0 1024 1024" enable-background="new 0 0 1024 1024" xml:space="preserve">
<path fill="#4DABCF" opacity="1.000000" stroke="none" 
	d="
M262.615845,628.663940 
	C260.430267,623.581726 256.280182,625.534546 252.956253,625.641541 
	C249.597656,625.749573 249.689041,628.922974 249.500748,631.370178 
	C249.309372,633.857361 249.357269,636.366089 249.369629,638.864990 
	C249.382462,641.458801 248.240433,643.124756 245.575882,643.081177 
	C242.968552,643.038513 241.752396,641.360596 241.717529,638.809570 
	C241.681107,636.143799 241.481949,633.465149 241.672638,630.815125 
	C241.931503,627.217651 240.407516,625.723206 236.865036,625.431763 
	C228.841675,624.771606 228.363281,625.115784 228.399506,633.161011 
	C228.408493,635.160095 228.411896,637.160828 228.341507,639.158203 
	C228.261276,641.435364 227.283661,643.067017 224.787003,643.107849 
	C222.099396,643.151855 220.884705,641.550232 220.819199,639.005371 
	C220.746323,636.174011 220.616959,633.333496 220.761826,630.509827 
	C220.924774,627.333557 219.642868,625.833618 216.433823,625.952698 
	C214.770508,626.014404 213.100815,625.973633 211.436218,625.915771 
	C208.530441,625.814819 207.124390,627.066467 207.254013,630.087524 
	C207.375320,632.914978 207.252853,635.752014 207.283585,638.584412 
	C207.310806,641.094604 206.342255,642.903687 203.677780,643.060730 
	C201.094147,643.213074 199.579376,641.611572 199.336624,639.170959 
	C199.024414,636.031799 198.900574,632.857483 198.956589,629.702881 
	C199.013748,626.482727 197.652405,625.262451 194.455368,625.328247 
	C186.631851,625.489319 178.785629,625.804626 170.981628,625.407593 
	C152.318268,624.458008 138.777802,609.882080 139.165695,591.177002 
	C139.362549,581.684387 139.708984,572.213562 139.302475,562.710266 
	C139.146072,559.053711 137.806854,558.110657 134.516525,558.336365 
	C131.866241,558.518127 129.185959,558.377075 126.524841,558.253357 
	C124.025085,558.137207 122.343872,556.852173 122.376938,554.231262 
	C122.411766,551.470703 124.303513,550.615906 126.787384,550.635315 
	C129.786530,550.658813 132.786560,550.611511 135.785065,550.662842 
	C137.939758,550.699707 139.272507,550.134766 139.159546,547.565125 
	C139.007278,544.101379 139.121750,540.626038 139.121750,537.123901 
	C135.103790,535.737122 131.445541,536.745605 127.851334,536.576050 
	C125.067345,536.444580 122.230515,536.152954 122.357872,532.372681 
	C122.476715,528.845337 125.187828,528.782043 127.781776,528.747375 
	C129.114639,528.729553 130.447891,528.740112 131.780960,528.736145 
	C140.916000,528.708923 138.792679,528.788940 139.123001,521.104553 
	C139.317062,516.589844 137.764496,514.623169 133.113159,515.080994 
	C130.650650,515.323486 128.112930,515.142090 125.642540,514.859924 
	C123.549385,514.620789 122.474136,513.138855 122.471634,511.019409 
	C122.469109,508.876862 123.596085,507.581940 125.688232,507.211792 
	C128.685333,506.681519 131.663010,507.057648 134.636917,507.507446 
	C137.551376,507.948212 139.106094,506.805206 139.006805,503.716614 
	C138.958649,502.218933 138.915710,500.708984 139.046371,499.220001 
	C139.386032,495.349335 137.712570,493.754120 133.819687,493.926544 
	C131.011642,494.050903 128.164825,493.807281 125.366173,493.470947 
	C123.220581,493.213074 122.249031,491.605713 122.338364,489.539154 
	C122.421600,487.613678 123.696785,486.398071 125.508568,486.223816 
	C128.484177,485.937561 131.492859,485.814850 134.481003,485.888885 
	C137.599838,485.966125 139.215759,484.765594 139.084320,481.543671 
	C139.063980,481.045258 139.116623,480.544342 139.113312,480.044708 
	C139.057938,471.678223 140.585587,472.350250 131.468231,472.287292 
	C129.636185,472.274628 127.799400,472.283417 125.973984,472.153412 
	C124.076889,472.018250 122.887733,470.950653 122.682068,469.019501 
	C122.458801,466.923004 123.345810,465.254242 125.414108,464.870270 
	C128.179398,464.356873 131.034103,463.975037 133.831985,464.071411 
	C137.761032,464.206726 139.148911,462.553925 139.101532,458.749146 
	C138.983246,449.252777 138.954498,439.750854 139.143250,430.256195 
	C139.473755,413.632904 150.260803,399.645691 165.640961,397.246216 
	C173.624207,396.000763 181.924637,396.741302 190.082504,396.675171 
	C198.879395,396.603882 198.736633,396.643707 199.123444,387.888885 
	C199.268066,384.615967 197.606033,379.470581 203.483139,379.670410 
	C208.962906,379.856781 206.753250,384.755066 207.298920,387.863281 
	C207.355728,388.186890 207.310013,388.528503 207.311462,388.861786 
	C207.343994,396.302856 210.982529,398.791199 218.355408,396.564728 
	C220.459991,395.929138 220.671722,394.447296 220.689865,392.712006 
	C220.721237,389.712921 220.702682,386.712799 220.774338,383.714752 
	C220.827042,381.510773 221.512390,379.767334 224.160446,379.678314 
	C226.777069,379.590393 228.236465,380.734253 228.408401,383.430145 
	C228.535553,385.423920 228.814545,387.408508 228.925232,389.402771 
	C229.303101,396.210358 233.076630,398.724762 239.530289,396.552032 
	C241.628616,395.845581 241.672318,394.249451 241.697128,392.564911 
	C241.743774,389.399536 241.718414,386.233002 241.774765,383.067871 
	C241.812668,380.939850 242.831863,379.556427 245.056976,379.434052 
	C247.275482,379.312073 248.870499,380.056763 249.446854,382.523529 
	C250.151001,385.537140 249.621140,388.503754 249.429825,391.477905 
	C249.093567,396.705719 252.383774,396.847656 256.243652,396.790924 
	C259.959869,396.736328 263.478088,397.052582 262.877258,391.534637 
	C262.590820,388.904053 262.791473,386.205017 262.943146,383.546783 
	C263.072632,381.277557 264.261475,379.815704 266.700043,379.704071 
	C269.397980,379.580536 270.758759,381.073608 270.919800,383.579742 
	C271.111847,386.568573 271.169556,389.576385 271.081085,392.569946 
	C270.993591,395.532135 272.190460,396.948242 275.207062,396.706421 
	C275.868805,396.653381 276.539368,396.712433 277.205872,396.716339 
	C283.946747,396.756012 283.931824,396.755615 284.022736,390.205505 
	C284.055115,387.875641 284.081909,385.538239 284.290344,383.220398 
	C284.486908,381.034454 285.478516,379.329498 287.985870,379.314301 
	C290.651031,379.298126 291.939240,380.935486 292.082672,383.400635 
	C292.247009,386.224365 292.368408,389.077179 292.152100,391.889984 
	C291.859802,395.690979 293.539581,397.053802 297.131409,396.717224 
	C298.453278,396.593353 299.797760,396.638733 301.128265,396.694519 
	C303.888611,396.810150 305.027802,395.463196 305.041077,392.772461 
	C305.055878,389.777710 305.204163,386.780792 305.388550,383.790619 
	C305.536041,381.398590 306.348236,379.558289 309.273346,379.692871 
	C312.272125,379.830933 313.287262,381.595276 313.284088,384.310242 
	C313.281189,386.809631 313.456329,389.318787 313.291321,391.806274 
	C313.042389,395.558105 314.774689,396.789642 318.349915,396.716797 
	C326.012115,396.560608 333.679810,396.597778 341.344482,396.656219 
	C358.544983,396.787415 372.843506,410.916412 373.083099,428.133575 
	C373.224518,438.296234 373.228668,448.464935 373.038849,458.626129 
	C372.961029,462.791016 374.604980,464.363373 378.653137,464.084045 
	C381.133636,463.912842 383.653137,464.043518 386.136627,464.255585 
	C388.442810,464.452484 389.820953,465.881195 389.774353,468.230133 
	C389.728607,470.536285 388.380798,471.997498 386.064209,472.166229 
	C383.409454,472.359497 380.732513,472.421448 378.072571,472.328735 
	C374.258179,472.195770 372.486267,473.734039 373.085815,477.673584 
	C373.765076,482.136444 372.204346,483.913361 367.335815,483.528351 
	C360.876099,483.017456 354.293549,482.831543 347.862061,483.480225 
	C338.278717,484.446869 331.901489,480.017334 326.920624,472.672943 
	C323.075317,467.002930 318.833191,461.708374 314.110199,456.734222 
	C302.635712,444.649536 288.822449,437.259460 272.169067,435.761139 
	C257.874756,434.475098 243.573929,434.077179 229.509094,437.960724 
	C202.328400,445.465820 178.902328,475.236176 178.257706,503.363892 
	C178.032883,513.173889 177.671143,522.995911 179.635864,532.738647 
	C182.982483,549.334106 194.338348,560.301758 206.073715,571.080750 
	C218.238876,582.254517 232.716248,587.089355 249.022980,586.962524 
	C259.493256,586.881042 269.969818,587.627258 280.378082,585.347900 
	C297.997559,581.489380 310.410431,570.178467 321.782501,557.246338 
	C323.540802,555.246887 325.344574,553.233276 326.755524,550.992126 
	C331.750519,543.058105 338.509583,539.333130 348.126312,540.482056 
	C354.719116,541.269714 361.398132,539.978638 368.085541,540.224731 
	C371.969208,540.367676 373.395142,541.618042 372.991425,545.087219 
	C372.397430,550.191406 375.105499,551.036621 379.282318,550.533264 
	C381.422363,550.275269 383.601135,550.188782 385.756500,550.246521 
	C388.260376,550.313538 389.929016,551.582825 389.832886,554.265808 
	C389.742401,556.790649 388.329407,558.263794 385.713226,558.318237 
	C383.048096,558.373718 380.371948,558.509033 377.717926,558.339294 
	C374.249634,558.117554 372.976166,559.570679 373.027863,563.006897 
	C373.173157,572.669739 373.127106,582.335876 373.112518,592.000610 
	C373.083679,611.122070 359.162506,625.204163 340.142456,625.343567 
	C332.977478,625.396118 325.806122,625.538940 318.648804,625.303101 
	C314.436249,625.164246 312.922485,626.826538 313.252228,630.892212 
	C313.466919,633.538940 313.293304,636.221375 313.221375,638.885925 
	C313.153076,641.417114 311.957123,643.045349 309.269775,643.019653 
	C306.672913,642.994812 305.273438,641.445679 305.114899,638.949890 
	C304.946136,636.293335 304.822784,633.608582 305.011749,630.959778 
	C305.420074,625.236755 301.451477,625.640747 297.728638,625.421021 
	C293.849915,625.192078 291.652832,626.448059 291.975922,630.774719 
	C292.161316,633.257080 292.035645,635.774109 291.891205,638.266296 
	C291.751770,640.671753 291.418182,643.095825 288.125793,643.071167 
	C284.691742,643.045410 284.136780,640.654419 284.059845,637.958862 
	C283.993286,635.627441 283.871521,633.285217 284.016388,630.962891 
	C284.253326,627.164978 282.605072,625.576233 278.806152,625.388672 
	C270.422668,624.974731 270.180695,625.157043 270.774475,633.722473 
	C270.911469,635.698975 270.740692,637.712463 270.542694,639.692017 
	C270.334412,641.774475 269.148254,643.068115 266.956146,643.099854 
	C264.597076,643.134094 263.065704,641.892578 262.905396,639.573547 
	C262.664551,636.089233 262.720764,632.584412 262.615845,628.663940 
M284.499146,604.621826 
	C288.997131,604.643005 293.506775,604.470825 297.989655,604.742065 
	C302.149475,604.993713 305.410034,603.581543 308.293152,600.713257 
	C321.756561,587.318787 335.283478,573.988037 348.720551,560.567322 
	C350.118011,559.171570 352.601715,557.511169 350.203491,555.210815 
	C348.172119,553.262451 346.216125,554.633057 344.581390,556.298828 
	C343.764496,557.131104 342.948517,557.964539 342.121765,558.786926 
	C330.664429,570.184204 319.252014,581.627197 307.713135,592.941223 
	C304.919464,595.680420 302.214142,598.433105 297.544800,598.407776 
	C270.388458,598.260498 243.230591,598.349487 216.073563,598.447144 
	C213.022339,598.458130 210.684753,597.513855 208.514633,595.376282 
	C199.495361,586.492371 190.805511,577.201355 181.165176,569.039612 
	C169.892548,559.495911 162.576462,548.959412 166.467743,533.451843 
	C166.506683,533.296631 166.462967,533.120117 166.454559,532.953735 
	C165.470703,513.471924 166.469864,493.975891 166.020996,474.491425 
	C165.939163,470.939178 166.988937,468.181549 169.596191,465.619690 
	C182.548309,452.893158 195.387619,440.050629 208.158829,427.142273 
	C210.611359,424.663391 213.333832,423.887665 216.674835,423.890869 
	C242.832397,423.916016 268.990448,423.914368 295.147278,423.750305 
	C299.470581,423.723206 302.705322,425.149658 305.825592,428.078705 
	C318.581940,440.053253 331.034576,452.328705 343.321564,464.781097 
	C345.248993,466.734497 347.628937,470.792450 350.544769,467.980316 
	C353.876495,464.767120 349.440918,462.425171 347.475555,460.452881 
	C334.658417,447.590576 321.619629,434.949310 308.769592,422.119354 
	C305.995300,419.349365 303.042938,417.966553 299.063782,417.987152 
	C270.408600,418.135559 241.752625,418.178101 213.097046,418.141235 
	C209.822754,418.137024 207.482590,419.291901 205.211929,421.563141 
	C191.549255,435.229492 177.823166,448.833588 163.997940,462.335266 
	C161.281662,464.987976 160.193298,467.804565 160.209106,471.600250 
	C160.319397,498.090546 160.309891,524.582031 160.144196,551.071960 
	C160.119141,555.077881 161.335724,558.001038 164.184097,560.748779 
	C177.971725,574.049500 191.690842,587.423157 205.278259,600.927856 
	C208.113708,603.746094 211.083801,604.814819 215.023880,604.785461 
	C237.848221,604.615906 260.674103,604.651733 284.499146,604.621826 
M164.278931,603.248779 
	C169.626205,605.117920 173.924530,603.691040 175.503525,599.522644 
	C177.009109,595.548035 175.095352,591.673401 170.782578,589.986267 
	C167.110397,588.549805 164.294373,589.932617 162.087708,592.826965 
	C159.163452,596.662354 160.463943,599.929565 164.278931,603.248779 
M346.687317,589.774780 
	C342.036072,588.675598 338.926788,590.796631 336.949646,594.745239 
	C335.439484,597.761169 336.910614,600.271729 339.085693,602.317505 
	C342.392822,605.428101 347.212769,604.970886 350.036163,601.417786 
	C353.039673,597.638000 352.120667,593.777344 346.687317,589.774780 
M163.538559,419.890869 
	C161.013214,422.449829 159.577026,425.281464 161.578201,428.800659 
	C163.693497,432.520508 168.275955,433.855499 171.919235,431.897644 
	C175.370071,430.043243 176.777618,425.934418 175.132538,422.517761 
	C173.150635,418.401550 169.365189,417.344299 163.538559,419.890869 
M336.752594,424.758179 
	C336.590393,426.485840 337.106201,428.050903 338.114014,429.399506 
	C340.603546,432.730957 343.844482,433.764191 347.693359,432.044800 
	C351.331726,430.419464 352.898987,426.520966 351.355194,422.966553 
	C349.675354,419.098816 346.534851,417.605225 342.498779,418.397034 
	C339.483978,418.988495 337.716614,421.136414 336.752594,424.758179 
z"/>
<path fill="#4DABCF" opacity="1.000000" stroke="none" 
	d="
M332.161865,541.088440 
	C324.994629,547.452576 320.254730,555.418884 314.031891,562.159485 
	C301.644257,575.577759 286.504028,582.759033 268.444092,584.192505 
	C257.283051,585.078369 246.193649,584.936768 235.112396,582.968506 
	C209.699265,578.454712 181.058792,550.199524 180.818802,519.110352 
	C180.688751,502.263000 181.256897,485.784027 191.173981,471.146179 
	C207.896988,446.462463 231.112961,435.476379 260.770020,437.456177 
	C275.223206,438.421051 289.187164,440.548706 301.526550,449.030975 
	C309.757141,454.688843 316.470428,461.720459 322.244385,469.759521 
	C323.021698,470.841797 323.851013,471.905060 324.481323,473.071655 
	C330.220795,483.694641 339.063507,487.755127 351.024567,486.714569 
	C360.465851,485.893188 369.997650,486.107391 379.489685,485.879700 
	C381.154785,485.839722 382.823700,485.844238 384.487885,485.906799 
	C387.174103,486.007812 389.639404,486.571075 389.623199,489.974243 
	C389.607605,493.247559 387.407928,494.141632 384.580536,494.144592 
	C380.800262,494.148529 377.019958,494.145569 373.153778,494.145569 
	C373.153778,497.898407 373.144745,500.849182 373.156677,503.799866 
	C373.166199,506.153351 374.613892,506.943237 376.709137,507.068115 
	C379.702393,507.246429 382.690918,507.513367 385.685638,507.653259 
	C388.019958,507.762268 389.576080,508.781677 389.713287,511.183380 
	C389.874664,514.007812 387.949249,514.927734 385.542694,515.047485 
	C382.881561,515.179932 380.206146,515.300049 377.549072,515.172852 
	C374.030548,515.004272 372.962280,516.635315 372.938324,519.983521 
	C372.876892,528.566223 372.761902,528.563599 381.351288,528.623718 
	C382.684265,528.633057 384.018097,528.713684 385.349701,528.682129 
	C387.923157,528.621155 389.636658,529.722839 389.697266,532.376160 
	C389.759064,535.082947 387.898041,536.347351 385.455933,536.201660 
	C377.960052,535.754639 370.620667,537.663086 363.139496,537.455627 
	C356.811890,537.280151 350.472351,537.540161 344.144470,537.370178 
	C339.799500,537.253479 335.893524,538.178101 332.161865,541.088440 
M294.272552,558.873047 
	C277.705719,569.316101 259.818176,573.092346 240.764191,568.101868 
	C217.702454,562.061707 202.467361,547.315430 197.320740,523.929565 
	C191.998932,499.747620 199.834625,479.351990 219.248993,464.117859 
	C246.414597,442.801575 294.940948,449.607239 312.257263,484.551483 
	C313.285797,486.626984 313.872559,489.294983 316.835236,490.221893 
	C313.122833,474.048035 289.678589,447.583130 253.170532,449.269379 
	C221.201675,450.745972 195.191666,476.137054 193.181763,507.716278 
	C190.863235,544.144714 222.880615,571.609009 251.507050,572.722961 
	C278.318817,573.766296 313.428467,554.565308 316.357574,533.732300 
	C309.574249,542.317383 303.946777,551.943787 294.272552,558.873047 
M215.350281,507.148804 
	C217.171387,503.332794 223.433136,501.962219 221.489334,496.009552 
	C221.390518,495.706879 222.245331,494.727936 222.740448,494.657623 
	C225.238327,494.302979 226.285828,492.393463 227.437851,490.583496 
	C230.225708,486.203339 235.383255,484.128967 237.415543,478.599854 
	C238.887863,474.594269 244.469299,476.311066 248.282669,475.561157 
	C255.172974,474.206207 262.123596,473.831512 269.077911,473.273193 
	C270.019867,473.197571 270.943634,472.522186 271.033417,470.927551 
	C270.721252,470.512238 270.321930,469.782349 269.744354,469.243439 
	C264.278931,464.144012 244.709122,463.398163 239.634705,468.836792 
	C236.259933,472.453735 233.399445,475.385773 228.051254,474.815063 
	C226.952087,474.697754 225.496506,476.264984 224.484344,477.322845 
	C222.187485,479.723480 219.409241,481.976196 218.024872,484.863525 
	C215.974136,489.140747 212.468994,492.764313 212.976349,498.381226 
	C213.431610,503.421448 213.659195,508.681122 212.324326,513.777832 
	C211.747910,515.978760 209.785278,517.612732 210.230148,520.264160 
	C211.359528,526.995239 214.450394,532.681641 218.916000,538.617126 
	C220.764999,535.520813 225.876511,534.361084 222.493881,530.204224 
	C217.120804,523.601440 217.795837,515.260193 215.350281,507.148804 
M233.190842,541.453674 
	C231.747620,540.655884 230.263992,539.565369 228.834824,541.378906 
	C228.246368,542.125671 228.512833,543.335327 229.230087,543.536682 
	C232.891037,544.564575 234.944855,547.916443 238.115494,549.483826 
	C240.151779,550.490479 242.587036,550.248596 244.416779,547.819031 
	C241.841660,543.833618 237.197540,543.910583 233.190842,541.453674 
M311.022095,520.283020 
	C309.670380,520.515625 307.997437,519.622681 307.023315,521.414612 
	C307.961334,523.207092 309.624084,523.095520 310.883331,522.411804 
	C313.958374,520.742188 316.578156,520.877258 319.771149,522.530579 
	C321.739349,523.549622 324.810852,523.869751 327.148285,520.831299 
	C321.728119,519.593323 316.781036,520.589478 311.022095,520.283020 
M341.839264,521.818787 
	C345.887848,523.148010 349.907379,524.167114 353.559509,520.826965 
	C350.461182,520.157043 347.384338,520.046021 344.323822,520.220764 
	C343.330658,520.277466 341.504425,519.112671 341.839264,521.818787 
z"/>
<path fill="#4DABCF" opacity="1.000000" stroke="none" 
	d="
M740.808350,553.000000 
	C740.803772,530.669006 740.937378,508.836487 740.691467,487.008240 
	C740.634644,481.963287 742.138245,479.996429 747.215759,480.559418 
	C750.344055,480.906281 753.556335,480.824951 756.704102,480.584930 
	C760.823547,480.270782 764.057251,480.804413 763.650208,487.121887 
	C774.290344,478.748077 785.326721,476.058136 797.520325,479.821533 
	C805.093811,482.158997 811.166626,486.605072 815.857056,493.001556 
	C826.501465,507.517853 826.165100,528.752808 814.880798,543.395447 
	C808.904602,551.150269 800.898804,555.639526 791.229797,556.973389 
	C781.596008,558.302490 772.849731,555.764038 764.202209,549.137695 
	C764.202209,558.582825 764.213318,566.835876 764.199463,575.088867 
	C764.180664,586.273193 764.966858,584.298401 754.905640,584.348206 
	C740.840149,584.417847 740.839294,584.344360 740.823792,570.498352 
	C740.817444,564.832214 740.813538,559.166138 740.808350,553.000000 
M770.041260,501.445953 
	C763.633545,507.547577 761.335693,518.917419 764.830261,527.230042 
	C769.923645,539.345703 787.152039,541.934082 795.533325,531.842773 
	C801.571655,524.572449 801.705139,511.039948 795.809326,503.857788 
	C790.393250,497.260040 779.786255,496.072266 770.041260,501.445953 
z"/>
<path fill="#4DABCF" opacity="1.000000" stroke="none" 
	d="
M485.694672,553.949341 
	C461.808838,561.917847 437.219543,555.659973 423.469910,537.395996 
	C410.819733,520.592529 408.755737,501.597900 417.196228,482.603149 
	C425.805145,463.229370 442.043365,453.610382 463.168549,452.732697 
	C483.301117,451.896210 499.630707,459.021729 510.606873,476.580292 
	C511.125153,477.409424 511.474518,478.344116 512.255005,479.958862 
	C506.146820,482.799316 500.243225,485.690460 494.211639,488.283813 
	C491.471985,489.461761 490.513794,486.786560 489.236084,485.164154 
	C479.022552,472.194580 463.092285,469.503754 449.220428,478.472351 
	C442.616882,482.741699 439.630096,489.303406 437.925049,496.638885 
	C434.459015,511.550720 439.916595,525.708557 451.829376,532.719666 
	C464.446289,540.145203 480.823090,536.616150 488.991852,524.453369 
	C490.820862,521.730042 492.529999,520.961182 495.563721,522.083374 
	C499.617462,523.582825 503.734375,524.998901 507.931885,525.998291 
	C512.314514,527.041870 512.178406,529.093262 510.291046,532.397095 
	C504.629364,542.307861 496.587067,549.439636 485.694672,553.949341 
z"/>
<path fill="#4DABCF" opacity="1.000000" stroke="none" 
	d="
M710.353760,481.401733 
	C726.473572,488.521515 734.487244,502.166443 733.312378,519.541626 
	C733.054565,523.353333 731.268494,524.232300 727.882874,524.212097 
	C713.069458,524.123535 698.255188,524.171509 683.441345,524.215698 
	C681.649353,524.221008 679.772461,523.791138 678.087280,524.807068 
	C678.331909,531.760559 684.910400,537.880615 693.032593,538.699829 
	C700.516479,539.454773 707.330078,538.208008 712.401062,531.993896 
	C713.437256,530.724182 714.579041,529.985352 716.281433,530.628784 
	C721.080688,532.442993 725.897949,534.214111 730.711853,537.087952 
	C726.983826,545.135925 720.842041,550.120667 713.299805,553.609375 
	C692.634888,563.168213 666.505737,553.944641 658.055420,533.306519 
	C646.586304,505.295532 666.312866,479.258667 691.881287,478.571960 
	C698.111633,478.404633 704.175049,478.874329 710.353760,481.401733 
M695.496582,509.812439 
	C700.561951,509.812439 705.627319,509.812439 710.768738,509.812439 
	C709.629822,501.179138 703.710815,496.369385 695.005310,496.291016 
	C685.912842,496.209198 679.482300,501.151428 678.182373,509.814514 
	C683.673401,509.814514 689.086609,509.814514 695.496582,509.812439 
z"/>
<path fill="#4DABCF" opacity="1.000000" stroke="none" 
	d="
M593.426270,499.821533 
	C602.822144,522.045837 593.887512,545.362549 572.963074,554.011047 
	C551.607544,562.837769 526.740173,553.048889 518.492004,532.568909 
	C507.161682,504.435822 529.204590,475.578217 559.598328,478.439362 
	C574.505615,479.842682 585.748413,486.527649 593.426270,499.821533 
M549.372864,498.657898 
	C538.821167,502.355438 536.262268,517.882874 540.055542,526.989441 
	C543.696411,535.730347 552.571289,539.955505 561.692688,537.171143 
	C571.751038,534.100830 576.605530,522.986450 573.412415,510.338867 
	C570.926636,500.492981 561.631165,495.733368 549.372864,498.657898 
z"/>
<path fill="#4DABCF" opacity="1.000000" stroke="none" 
	d="
M863.689331,524.868408 
	C868.616516,511.463440 873.557922,498.380035 878.112793,485.163422 
	C879.445740,481.295715 881.631042,479.901855 885.439209,480.065613 
	C891.347229,480.319580 897.311646,479.596619 903.995850,480.722931 
	C900.637634,488.849823 897.612671,496.348267 894.450500,503.788452 
	C885.659729,524.472229 877.750732,545.527771 868.280640,565.924316 
	C866.025635,570.781189 863.406372,575.413696 859.254700,578.970642 
	C851.206421,585.865723 841.647278,584.901489 832.143250,584.143127 
	C830.532288,584.014587 829.914612,582.829285 829.888977,581.345947 
	C829.860107,579.681580 829.892273,578.015198 829.938965,576.350830 
	C830.210205,566.678467 830.214233,566.678589 839.768433,565.659729 
	C846.575134,564.933777 852.352234,555.977295 849.716003,549.714783 
	C840.543884,527.926819 831.192017,506.214478 821.924011,484.466797 
	C821.486267,483.439575 820.479187,482.561462 821.173279,480.606812 
	C828.355957,480.606812 835.769836,480.539368 843.181274,480.643677 
	C845.747192,480.679810 846.148804,483.109039 846.817078,484.882996 
	C851.686707,497.808716 856.437073,510.779449 861.325500,523.697937 
	C861.585571,524.385132 861.022827,527.528015 863.689331,524.868408 
z"/>
<path fill="#4DABCF" opacity="1.000000" stroke="none" 
	d="
M629.219788,488.099976 
	C634.896790,481.721680 642.039307,479.667206 650.010132,479.429718 
	C652.803894,479.346466 654.084229,480.315765 653.937378,483.121460 
	C653.693787,487.775116 653.430420,492.428589 653.266052,497.085297 
	C653.155823,500.210114 651.101624,500.386444 648.767944,500.278992 
	C644.224487,500.069794 639.839111,500.477112 635.686462,502.675507 
	C630.644897,505.344574 628.007874,509.238342 628.036743,515.061340 
	C628.094482,526.718750 627.826477,538.379028 627.990173,550.033997 
	C628.053772,554.561218 626.529297,556.388733 621.901062,555.985840 
	C618.100281,555.654968 614.239929,555.807251 610.417358,555.986816 
	C606.697876,556.161438 604.947876,554.908875 604.962463,550.880493 
	C605.041931,528.896973 604.986389,506.912537 604.871277,484.928986 
	C604.854126,481.648804 606.172058,480.490417 609.337585,480.603027 
	C613.495605,480.750916 617.676025,480.817841 621.823792,480.555389 
	C626.160034,480.281006 628.638245,481.387634 627.737549,486.341248 
	C627.615295,487.013519 627.209167,488.565521 629.219788,488.099976 
z"/>
</svg>